<?xml version="1.0" encoding="utf-8"?>
<!-- Generator: Adobe Illustrator 16.0.0, SVG Export Plug-In . SVG Version: 6.00 Build 0)  -->
<!DOCTYPE svg PUBLIC "-//W3C//DTD SVG 1.1//EN" "http://www.w3.org/Graphics/SVG/1.1/DTD/svg11.dtd">
<svg version="1.1" id="Layer_1" xmlns="http://www.w3.org/2000/svg" xmlns:xlink="http://www.w3.org/1999/xlink" x="0px" y="0px"
	 width="26.083px" height="39.666px" viewBox="9 12.991 26.083 39.666" enable-background="new 9 12.991 26.083 39.666"
	 xml:space="preserve">
<path fill="#19499C" stroke="#FFFFFF" stroke-width="2" stroke-miterlimit="10" d="M22.042,14.752
	c-6.238,0-11.294,5.059-11.294,11.295c0,10.785,11.294,24.848,11.294,24.848s11.295-14.063,11.295-24.848
	C33.336,19.811,28.28,14.752,22.042,14.752L22.042,14.752z M22.042,30.563c-2.419,0-4.38-1.961-4.38-4.381
	c0-2.419,1.961-4.379,4.38-4.379c2.42,0,4.38,1.959,4.38,4.379C26.421,28.602,24.461,30.563,22.042,30.563L22.042,30.563z"/>
<path fill="#19499C" stroke="#FFFFFF" stroke-miterlimit="10" d="M13.912,20.167"/>
</svg>
