<?xml version="1.0" encoding="utf-8"?>
<!-- Generator: Adobe Illustrator 16.0.0, SVG Export Plug-In . SVG Version: 6.00 Build 0)  -->
<!DOCTYPE svg PUBLIC "-//W3C//DTD SVG 1.1//EN" "http://www.w3.org/Graphics/SVG/1.1/DTD/svg11.dtd">
<svg version="1.1" id="Layer_1" xmlns="http://www.w3.org/2000/svg" xmlns:xlink="http://www.w3.org/1999/xlink" x="0px" y="0px"
	 width="548px" height="100px" viewBox="0 0 548 100" enable-background="new 0 0 548 100" xml:space="preserve">
<polygon fill="#FFFFFF" stroke="#FFC20E" stroke-width="6" stroke-miterlimit="10" points="49.597,10.85 62.258,36.504 
	90.568,40.618 70.082,60.586 74.919,88.783 49.597,75.471 24.275,88.783 29.111,60.586 8.625,40.618 36.936,36.504 "/>
<polygon fill="#FFFFFF" stroke="#FFC20E" stroke-width="6" stroke-miterlimit="10" points="161.597,10.85 174.258,36.504 
	202.568,40.618 182.082,60.586 186.919,88.783 161.597,75.471 136.275,88.783 141.111,60.586 120.625,40.618 148.936,36.504 "/>
<polygon fill="#FFFFFF" stroke="#FFC20E" stroke-width="6" stroke-miterlimit="10" points="273.597,10.85 286.258,36.504 
	314.568,40.618 294.082,60.586 298.919,88.783 273.597,75.471 248.275,88.783 253.111,60.586 232.625,40.618 260.936,36.504 "/>
<polygon fill="#FFFFFF" stroke="#FFC20E" stroke-width="6" stroke-miterlimit="10" points="385.597,10.85 398.258,36.504 
	426.568,40.618 406.082,60.586 410.919,88.783 385.597,75.471 360.275,88.783 365.111,60.586 344.625,40.618 372.936,36.504 "/>
<polygon fill="#FFFFFF" stroke="#FFC20E" stroke-width="6" stroke-miterlimit="10" points="497.597,10.85 510.258,36.504 
	538.568,40.618 518.082,60.586 522.919,88.783 497.597,75.471 472.275,88.783 477.111,60.586 456.625,40.618 484.936,36.504 "/>
</svg>
