<?xml version="1.0" encoding="UTF-8" standalone="no"?>
<svg width="221px" height="205px" viewBox="0 0 221 205" version="1.1" xmlns="http://www.w3.org/2000/svg" xmlns:xlink="http://www.w3.org/1999/xlink" xmlns:sketch="http://www.bohemiancoding.com/sketch/ns">
    <!-- Generator: Sketch 3.4 (15575) - http://www.bohemiancoding.com/sketch -->
    <title>province</title>
    <desc>Created with Sketch.</desc>
    <defs></defs>
    <g id="Version2" stroke="none" stroke-width="1" fill="none" fill-rule="evenodd" sketch:type="MSPage">
        <g id="map-icon" sketch:type="MSLayerGroup" fill="#FFFFFF">
            <path d="M154.862054,61.2687877 L151.296728,61.2687877 L148.750528,68.0223597 L151.972383,72.7795499 L157.122836,75.4379797 L159.557771,72.2898392 L162.913467,69.9982658 L160.684936,66.1283564 L162.615147,60.7005867 L164.954942,60.7005867 L165.158122,58.3015159 L163.974518,56.7044104 L161.912079,52.83962 L161.263838,51.7629388 L160.154411,52.1826909 L160.110872,52.0530114 L157.1954,52.9607679 L154.862054,61.2687877 Z" id="Fill-1" opacity="0.60051306" sketch:type="MSShapeGroup"></path>
            <path d="M174.347988,87.485035 L167.941366,81.7501296 L160.151186,81.7501296 L149.851893,76.4315636 L147.502422,78.7623821 L140.5814,78.7623821 L136.219479,80.2980604 L136.219479,83.396718 L131.220605,89.5206619 L124.560815,88.8654392 L115.062954,97.615393 L112.927951,107.885668 L106.626145,120.239347 L117.081854,132.067483 L121.503439,134.405127 L121.503439,134.451197 L129.685467,131.507814 L136.745167,134.986978 L142.219741,131.072705 L137.449847,118.242966 L151.385418,105.519017 L162.823164,102.314569 L165.343565,103.561881 L172.677397,97.0369542 L174.347988,87.485035 Z" id="Fill-2" opacity="0.60051306" sketch:type="MSShapeGroup"></path>
            <path d="M169.552939,114.854235 L164.362173,107.78329 L162.44325,106.836288 L153.314661,109.394046 L142.249411,119.497103 L146.293662,130.373118 L152.47614,133.867639 L154.967515,130.485735 L156.90095,126.837645 L165.189406,125.22177 L169.830296,117.888053 L169.552939,114.854235 Z" id="Fill-3" opacity="0.60051306" sketch:type="MSShapeGroup"></path>
            <path d="M178.631539,0.590212371 L169.962524,2.50981028 L169.357822,5.28256282 L159.882536,7.41544939 L152.624494,17.4451352 L141.938191,22.139192 L139.922516,34.300058 L136.555533,37.0984052 L137.495643,39.1255006 L140.019269,39.6749322 L144.81335,44.5464451 L153.66297,43.6676958 L159.335885,47.8225589 L167.37601,43.1950482 L173.20373,47.5631999 L175.0259,49.6158899 L180.566587,50.0765934 L183.470772,44.976435 L188.484159,44.6351732 L192.213964,37.4754995 L197.822378,37.4021282 L199.867079,30.7219275 L207.721761,28.3928154 L207.462142,27.4714084 L206.052782,15.0955473 L202.422955,4.64610947 L189.116274,2.72480525 L178.631539,0.590212371 Z" id="Fill-4" opacity="0.60051306" sketch:type="MSShapeGroup"></path>
            <path d="M200.764457,41.62968 L194.612617,41.7115829 L190.948926,48.7449896 L185.835562,49.0896641 L182.73626,54.5379096 L173.15616,53.7393568 L170.543845,50.7959734 L167.096234,48.2126212 L164.7258,49.5776686 L165.395005,50.6901822 L167.338115,54.3280335 L169.315089,56.9984075 L168.644273,64.9668717 L165.40468,64.9668717 L165.149898,65.6835216 L168.400779,71.3279926 L162.276352,75.5101566 L160.846029,77.3597958 L161.08146,77.4826501 L169.421517,77.4826501 L177.281037,84.5228821 L180.31745,84.5228821 L183.694109,82.2142457 L192.71627,83.7482177 L196.102604,80.5301184 L191.937413,73.1264426 L198.187618,61.3938601 L203.631553,59.6858446 L207.664516,63.5267467 L210.284894,58.192824 L210.689641,38.9917259 L208.865858,32.4872751 L203.036526,34.21406 L200.764457,41.62968 Z" id="Fill-5" opacity="0.60051306" sketch:type="MSShapeGroup"></path>
            <path d="M209.882081,78.2463941 L207.664839,85.5016211 L199.615039,82.9285067 L193.977599,88.2829052 L184.581328,86.6857997 L181.506214,88.789679 L178.223083,88.789679 L176.378337,99.3159008 L168.43819,106.381727 L173.454802,113.212083 L173.983715,118.996472 L169.25091,126.475225 L171.593931,133.157132 L170.705421,135.312201 L172.859775,135.656875 L181.354636,140.151294 L182.857523,142.951347 L184.478126,141.395193 L203.027173,112.167822 L212.300891,107.473765 L220.769951,78.2463941 L209.882081,78.2463941 Z" id="Fill-6" opacity="0.60051306" sketch:type="MSShapeGroup"></path>
            <path d="M178.454966,143.386627 L171.627472,139.77437 L164.911243,138.697689 L167.247813,133.02933 L165.978744,129.406835 L159.493108,130.67121 L158.333692,132.855286 L153.570249,139.322198 L144.810931,134.370489 L137.10944,139.873336 L129.449875,136.09898 L121.503278,138.958754 L121.503278,145.522926 L107.749924,150.979703 L105.134384,154.037409 L103.018732,161.075935 L93.4337937,166.664098 L93.2596394,171.670409 L90.4602699,177.709038 L96.8459284,179.702007 L98.6019845,189.613957 L110.486404,192.809874 L114.720934,188.75739 L120.97114,190.676988 L122.58368,185.55806 L133.066802,185.55806 L152.283442,174.339077 L167.139773,158.035292 L179.798212,145.88637 L178.454966,143.386627 Z" id="Fill-7" sketch:type="MSShapeGroup"></path>
            <path d="M85.2740187,64.4380865 L89.6810906,57.3210706 L101.74934,77.6005561 L104.211689,84.6749143 L111.882542,85.540013 L114.185249,92.7679391 L123.215473,84.4462688 L129.526954,85.0690717 L132.189258,81.8083147 L132.189258,77.2234617 L139.926225,74.4950732 L145.908748,74.4950732 L147.26167,73.1505015 L144.188168,68.6100126 L148.564602,57.0019908 L151.854184,57.0019908 L153.956936,49.521531 L154.385871,49.3884389 L152.574989,48.059224 L143.354485,48.975512 L138.066966,43.6074631 L134.745134,42.883988 L133.050354,39.2256609 L126.41314,40.4849172 L122.784925,55.8451131 L107.864092,57.5531286 L97.9856717,53.7122265 L92.5417366,49.2331647 L85.8883965,49.4464534 L82.0505512,62.0304841 L85.2740187,64.4380865 Z" id="Fill-8" opacity="0.60051306" sketch:type="MSShapeGroup"></path>
            <path d="M45.3642983,100.220415 L39.5172282,105.127761 L37.7031207,109.393534 L21.7744504,109.606823 L11.6944627,102.672382 L7.66150013,96.5945082 L0.000322508004,107.473936 L5.37330585,115.741004 L15.5000572,139.890399 L30.3209125,130.886205 L35.7100212,140.938073 L38.6190434,155.916056 L42.9309754,158.610318 L44.5322276,163.620042 L50.8872478,161.664612 L52.9641994,169.568236 L59.1224897,171.119271 L69.8668439,158.69734 L74.686726,159.060784 L76.8942933,146.454571 L89.2624752,153.969157 L96.8446384,149.537872 L101.508104,151.919879 L105.416901,147.348677 L117.47225,142.565892 L117.47225,137.040863 L114.632567,135.541017 L101.701609,120.914534 L109.11123,106.385311 L111.146256,96.5893893 L108.887087,89.4928491 L101.293636,88.6362818 L98.1104823,79.4955831 L89.6140089,65.2137747 L86.3582906,70.4709135 L79.4308187,65.2956775 L72.5823612,72.6993534 L67.1384261,75.2588173 L56.8552585,73.9790853 L54.4364484,68.8584512 L58.066276,62.4597915 L45.3642983,41.7656729 L45.3642983,100.220415 Z" id="Fill-9" opacity="0.60051306" sketch:type="MSShapeGroup"></path>
            <path d="M17.257242,143.743075 L25.6053617,154.835791 L27.2179017,168.489678 L25.4037942,172.328874 L21.5723991,172.328874 L30.8477293,188.328936 L28.2257392,193.236281 L30.8477293,196.224029 L36.0900969,193.876147 L36.0900969,197.717049 L41.9355544,197.717049 L41.2599002,201.646679 L50.2030471,204.757281 L62.7034573,197.717049 L69.8889357,197.095953 L82.2587301,189.610374 L94.5575728,191.316683 L94.784941,191.219424 L93.3368801,183.054734 L84.7355916,180.370709 L89.2619914,170.607208 L89.4893596,164.092519 L99.6644871,158.159682 L100.30144,156.040446 L96.9683202,154.339255 L89.224903,158.866094 L79.8205696,153.151664 L77.9951743,163.589158 L71.5256638,163.099447 L60.4958901,175.84899 L49.71606,173.135958 L48.0954573,166.96765 L41.9500673,168.858241 L39.5893087,161.476747 L35.0290456,158.627211 L31.8894301,142.456518 L28.8143163,136.721612 L17.257242,143.743075 Z" id="Fill-10" opacity="0.60051306" sketch:type="MSShapeGroup"></path>
        </g>
    </g>
</svg>