<?xml version="1.0" encoding="UTF-8" standalone="no"?>
<svg width="97px" height="90px" viewBox="0 0 97 90" version="1.1" xmlns="http://www.w3.org/2000/svg" xmlns:xlink="http://www.w3.org/1999/xlink" xmlns:sketch="http://www.bohemiancoding.com/sketch/ns">
    <!-- Generator: Sketch 3.4.2 (15855) - http://www.bohemiancoding.com/sketch -->
    <title>mpumalanga</title>
    <desc>Created with Sketch.</desc>
    <defs></defs>
    <g id="Elements" stroke="none" stroke-width="1" fill="none" fill-rule="evenodd" sketch:type="MSPage">
        <g id="Artboard-1" sketch:type="MSArtboardGroup" transform="translate(-1136.000000, -1192.000000)" fill="#FFFFFF">
            <g id="mpumalanga" sketch:type="MSLayerGroup" transform="translate(1136.650000, 1192.517774)">
                <path d="M66.9920531,26.5900286 L65.4497223,26.5900286 L64.3482568,29.5210099 L65.7420048,31.5855819 L67.9700484,32.7393133 L69.0233815,31.3730525 L70.4750279,30.378533 L69.510984,28.6990318 L70.3459772,26.3434352 L71.3581535,26.3434352 L71.4460475,25.3022629 L70.93403,24.6091354 L70.041836,22.9318558 L69.7614122,22.4645872 L69.281483,22.6467553 L69.2626485,22.5904757 L68.0014391,22.9844328 L66.9920531,26.5900286 Z" id="Fill-1" opacity="0.6" sketch:type="MSShapeGroup"></path>
                <path d="M75.4215079,37.9676124 L72.6500561,35.4787219 L69.2800878,35.4787219 L64.8246982,33.1705186 L63.8083364,34.18207 L60.8143592,34.18207 L58.9274281,34.8485387 L58.9274281,36.1933245 L56.7649563,38.8510537 L53.8839857,38.5666937 L49.7752891,42.3640844 L48.8517044,46.8212791 L46.1255947,52.1826497 L50.6486487,57.3159399 L52.56139,58.3304534 L52.56139,58.3504475 L56.1008681,57.0730491 L59.1548365,58.582971 L61.523092,56.8842163 L59.4596753,51.3162404 L65.4880888,45.7941767 L70.4359639,44.4034787 L71.5262683,44.9447994 L74.6988238,42.1130478 L75.4215079,37.9676124 Z" id="Fill-2" opacity="0.6" sketch:type="MSShapeGroup"></path>
                <path d="M73.3472091,49.8455661 L71.1017262,46.7768478 L70.271616,46.3658588 L66.3226634,47.4758995 L61.5359273,51.8605232 L63.2854368,56.5806028 L65.9599262,58.0971894 L67.0376742,56.6294771 L67.8740626,55.0462437 L71.4595804,54.3449705 L73.4671914,51.162212 L73.3472091,49.8455661 Z" id="Fill-3" opacity="0.6" sketch:type="MSShapeGroup"></path>
                <path d="M77.274537,0.256146146 L73.5243923,1.08923205 L73.2628029,2.29257836 L69.1638724,3.21822936 L66.0241028,7.57101064 L61.401296,9.60818337 L60.5293315,14.8858751 L59.0728021,16.1003293 L59.4794863,16.980068 L60.5711858,17.2185157 L62.6450661,19.3327026 L66.4733388,18.9513343 L68.9273956,20.7545025 L72.4054875,18.7462101 L74.9265111,20.6419433 L75.714767,21.5327899 L78.1116229,21.7327305 L79.3679493,19.5193138 L81.5366993,19.3712096 L83.1501824,16.2639844 L85.5763363,16.232142 L86.460857,13.333003 L89.8587282,12.3221921 L89.7464191,11.9223109 L89.1367416,6.55131349 L87.566508,2.0163641 L81.8101474,1.18253767 L77.274537,0.256146146 Z" id="Fill-4" opacity="0.6" sketch:type="MSShapeGroup"></path>
                <path d="M86.8490556,18.0668563 L84.1878201,18.1024013 L82.6029375,21.154828 L80.390938,21.3044133 L79.0502055,23.6688962 L74.9059328,23.3223324 L73.7758668,22.0449341 L72.2844588,20.9237856 L71.2590286,21.5162022 L71.5485208,21.9990218 L72.3890945,23.5778121 L73.2443173,24.7367272 L72.9541275,28.1949593 L71.5527062,28.1949593 L71.4424899,28.5059781 L72.8487942,30.9556209 L70.1994174,32.7706374 L69.5806714,33.5733619 L69.6825169,33.6266794 L73.290357,33.6266794 L76.6903208,36.6820683 L78.0038481,36.6820683 L79.464563,35.6801436 L83.3674759,36.3458718 L84.8323762,34.9492496 L83.0305488,31.7361298 L85.7343363,26.6443088 L88.0893379,25.9030474 L89.8339644,27.5699598 L90.9675182,25.2550917 L91.1426086,16.9220111 L90.3536552,14.0991458 L87.831934,14.8485529 L86.8490556,18.0668563 Z" id="Fill-5" sketch:type="MSShapeGroup"></path>
                <path d="M90.7932648,33.9581365 L89.8341039,37.106831 L86.3518266,35.9901256 L83.9131164,38.3138799 L79.8483669,37.6207524 L78.5180979,38.5338146 L77.0978422,38.5338146 L76.2998203,43.1020874 L72.8649779,46.1685841 L75.035123,49.1328888 L75.2639265,51.6432544 L73.2165539,54.888957 L74.2301254,57.7888365 L73.8457635,58.7241143 L74.7777191,58.8736995 L78.4525261,60.8242313 L79.1026629,62.0394259 L79.8037223,61.3640709 L87.8278881,48.6796901 L91.8396222,46.6425174 L95.503268,33.9581365 L90.7932648,33.9581365 Z" id="Fill-6" opacity="0.6" sketch:type="MSShapeGroup"></path>
                <path d="M77.198153,62.2283328 L74.2446349,60.6606502 L71.3392493,60.1933816 L72.3500305,57.7333715 L71.8010417,56.1612458 L68.9954089,56.7099717 L68.4938549,57.6578384 L66.4332285,60.4644122 L62.6440197,58.3154208 L59.3124179,60.7036004 L55.9989529,59.0655684 L52.5613202,60.3066813 L52.5613202,63.1554648 L46.6117323,65.5236503 L45.4802712,66.8506636 L44.5650573,69.9053119 L40.4186919,72.3305176 L40.3433542,74.5032056 L39.1323699,77.1239087 L41.8947534,77.988837 L42.6544088,82.2905224 L47.7955113,83.6775178 L49.6273342,81.9187809 L52.3311216,82.7518668 L53.0286932,80.5303044 L57.563606,80.5303044 L65.8765664,75.6613801 L72.3032932,68.5857039 L77.7792301,63.3131957 L77.198153,62.2283328 Z" id="Fill-7" opacity="0.6" sketch:type="MSShapeGroup"></path>
                <path d="M36.8888403,27.9654719 L38.7953034,24.8767597 L44.015929,33.6778494 L45.0811208,36.7480487 L48.3994687,37.1234927 L49.3956009,40.2603388 L53.3020017,36.6488189 L56.0322969,36.919109 L57.1839875,35.5039737 L57.1839875,33.5141943 L60.5309359,32.3301015 L63.1189264,32.3301015 L63.704189,31.7465712 L62.3746176,29.7760453 L64.2678268,24.7382823 L65.6908728,24.7382823 L66.6005061,21.4918391 L66.7860602,21.4340784 L66.0026873,20.8572127 L62.0139731,21.2548724 L59.7266359,18.925194 L58.2896385,18.6112131 L57.5564907,17.0235365 L54.6852862,17.5700409 L53.1157501,24.2362092 L46.6611204,24.9774705 L42.3877969,23.3105582 L40.0327953,21.3666911 L37.154615,21.4592562 L35.4943947,26.9205971 L36.8888403,27.9654719 Z" id="Fill-8" opacity="0.6" sketch:type="MSShapeGroup"></path>
                <path d="M19.6242229,43.4946375 L17.0948284,45.6243753 L16.3100604,47.4756773 L9.41944843,47.5682424 L5.05892854,44.5587659 L3.31430204,41.9210308 L0.000139514313,46.6425914 L2.32444799,50.2304147 L6.70519745,60.7110056 L13.1165777,56.8032774 L15.4478619,61.1656854 L16.706281,67.665977 L18.5715874,68.8352594 L19.264276,71.0094285 L22.0134056,70.1607916 L22.9118777,73.590884 L25.5759036,74.2640174 L30.2238229,68.8730259 L32.3088644,69.0307569 L33.2638398,63.5597892 L38.6142138,66.8210428 L41.8941953,64.8979103 L43.9115723,65.9316773 L45.6024858,63.9478221 L50.8175308,61.8721423 L50.8175308,59.4743359 L49.5891073,58.8234181 L43.9952809,52.4756738 L47.2006222,46.1701392 L48.0809576,41.9188092 L47.1036598,38.8389832 L43.8187953,38.4672418 L42.441789,34.5002718 L38.7662844,28.3021127 L37.3578874,30.5836573 L34.3611199,28.3376577 L31.3985335,31.5507775 L29.0435318,32.6615587 L24.5951179,32.1061681 L23.5487606,29.8838651 L25.1189942,27.1069121 L19.6242229,18.1258758 L19.6242229,43.4946375 Z" id="Fill-9" opacity="0.6" sketch:type="MSShapeGroup"></path>
                <path d="M7.46534119,62.3830276 L11.0766692,67.1971533 L11.7742408,73.1228008 L10.9894728,74.7889726 L9.33204271,74.7889726 L13.3444744,81.7328362 L12.210223,83.862574 L13.3444744,85.1592259 L15.6122796,84.1402693 L15.6122796,85.8071816 L18.1409765,85.8071816 L17.848694,87.512601 L21.7174259,88.8625705 L27.1250007,85.8071816 L30.2333797,85.537632 L35.5844512,82.2889673 L40.9048295,83.0294881 L41.0031871,82.9872784 L40.3767679,79.4438864 L36.6559211,78.2790471 L38.6140045,74.0417871 L38.7123621,71.2144787 L43.1140387,68.6396878 L43.3895795,67.719961 L41.947699,66.9816618 L38.5979604,68.9462634 L34.529723,66.4662593 L33.7400719,70.996025 L30.9414148,70.7834956 L26.1700253,76.316667 L21.5067593,75.1392389 L20.8056999,72.4622562 L18.1472546,73.2827533 L17.1260099,70.0792603 L15.1532775,68.8425905 L13.7951056,61.8246749 L12.4648366,59.3357845 L7.46534119,62.3830276 Z" id="Fill-10" opacity="0.6" sketch:type="MSShapeGroup"></path>
            </g>
        </g>
    </g>
</svg>