<?xml version="1.0" encoding="UTF-8" standalone="no"?>
<svg width="97px" height="90px" viewBox="0 0 97 90" version="1.1" xmlns="http://www.w3.org/2000/svg" xmlns:xlink="http://www.w3.org/1999/xlink" xmlns:sketch="http://www.bohemiancoding.com/sketch/ns">
    <!-- Generator: Sketch 3.4.2 (15855) - http://www.bohemiancoding.com/sketch -->
    <title>northern-cape</title>
    <desc>Created with Sketch.</desc>
    <defs></defs>
    <g id="Elements" stroke="none" stroke-width="1" fill="none" fill-rule="evenodd" sketch:type="MSPage">
        <g id="Artboard-1" sketch:type="MSArtboardGroup" transform="translate(-1135.000000, -830.000000)" fill="#FFFFFF">
            <g id="northern-cape" sketch:type="MSLayerGroup" transform="translate(1135.000000, 830.000000)">
                <path d="M67.6154839,26.8374765 L66.0588002,26.8374765 L64.9470844,29.7957337 L66.3538027,31.8795187 L68.6025806,33.0439868 L69.665716,31.6650114 L71.1308715,30.6612369 L70.1578562,28.9661062 L71.0006198,26.5885883 L72.0222155,26.5885883 L72.1109275,25.5377268 L71.5941451,24.8381491 L70.6936483,23.1452606 L70.4106148,22.6736436 L69.9262194,22.857507 L69.9072097,22.8007037 L68.6342634,23.1983269 L67.6154839,26.8374765 Z" id="Fill-1" opacity="0.6" sketch:type="MSShapeGroup"></path>
                <path d="M76.1233837,38.3209406 L73.3261406,35.8088884 L69.9248112,35.8088884 L65.4279596,33.4792049 L64.4021395,34.5001698 L61.3803002,34.5001698 L59.4758093,35.1728407 L59.4758093,36.5301411 L57.2932134,39.2126032 L54.3854323,38.925597 L50.2385001,42.7583263 L49.3063204,47.2569999 L46.5548414,52.6682637 L51.1199872,57.8493245 L53.0505285,58.8732791 L53.0505285,58.8934592 L56.6229452,57.6041733 L59.7053339,59.1281466 L62.0956285,57.4135832 L60.0130095,51.7937915 L66.0975237,46.2203393 L71.091444,44.8166993 L72.1918947,45.3630576 L75.3939742,42.5049536 L76.1233837,38.3209406 Z" id="Fill-2" opacity="0.6" sketch:type="MSShapeGroup"></path>
                <path d="M74.0297813,50.309431 L71.7634019,47.2121552 L70.9255667,46.7973414 L66.9398649,47.9177122 L62.1085832,52.3431394 L63.8743737,57.1071442 L66.573752,58.6378443 L67.6615297,57.1564734 L68.5057015,55.5585063 L72.1245863,54.850707 L74.1508802,51.6383297 L74.0297813,50.309431 Z" id="Fill-3" opacity="0.6" sketch:type="MSShapeGroup"></path>
                <path d="M77.9936571,0.258529853 L74.2086134,1.09936849 L73.9445897,2.31391319 L69.8075143,3.24817834 L66.6385258,7.64146679 L61.972699,9.69759753 L61.09262,15.0244037 L59.6225361,16.2501596 L60.0330049,17.1380852 L61.1348638,17.3787519 L63.2280437,19.5126135 L67.0919425,19.1276963 L69.5688369,20.9476448 L73.079296,18.9206631 L75.6237804,20.8340381 L76.4193718,21.7331749 L78.838533,21.9349762 L80.1065508,19.7009614 L82.2954833,19.5514789 L83.9239815,16.4153377 L86.3727133,16.383199 L87.2654654,13.4570805 L90.6949573,12.436863 L90.5816031,12.0332604 L89.9662519,6.6122803 L88.3814056,2.03512846 L82.5714761,1.19354242 L77.9936571,0.258529853 Z" id="Fill-4" opacity="0.599999964" sketch:type="MSShapeGroup"></path>
                <path d="M87.6572766,18.2349872 L84.9712755,18.270863 L83.3716439,21.3516958 L81.1390595,21.502673 L79.78585,23.8891599 L75.6030105,23.5393711 L74.4624282,22.2500851 L72.957141,21.1185032 L71.9221681,21.7164329 L72.2143544,22.2037456 L73.0627505,23.7972282 L73.925932,24.9669282 L73.6330417,28.4573428 L72.2185787,28.4573428 L72.1073368,28.7712559 L73.5267282,31.2436952 L70.8526961,33.0756023 L70.2281921,33.885797 L70.3309853,33.9396107 L73.9724002,33.9396107 L77.4040042,37.0234331 L78.7297552,37.0234331 L80.2040636,36.0121845 L84.1432972,36.684108 L85.6218299,35.2744888 L83.8032346,32.0314676 L86.5321836,26.8922618 L88.909101,26.1441023 L90.669963,27.826527 L91.8140657,25.4901167 L91.9907856,17.0794881 L91.1944901,14.2303531 L88.6493017,14.9867341 L87.6572766,18.2349872 Z" id="Fill-5" opacity="0.6" sketch:type="MSShapeGroup"></path>
                <path d="M91.6381908,34.2741524 L90.6701039,37.4521487 L87.1554204,36.3250512 L84.6940154,38.6704305 L80.5914391,37.9708527 L79.2487906,38.8924119 L77.8153179,38.8924119 L77.0098696,43.5031973 L73.5430624,46.5982309 L75.7334031,49.5901216 L75.9643358,52.1238487 L73.8979103,55.399756 L74.9209141,58.3266219 L74.5329753,59.2706034 L75.4736037,59.4215806 L79.1826087,61.3902641 L79.8387956,62.6167674 L80.5463791,61.9351276 L88.6452181,49.1327054 L92.6942856,47.0765746 L96.3920255,34.2741524 L91.6381908,34.2741524 Z" id="Fill-6" opacity="0.6" sketch:type="MSShapeGroup"></path>
                <path d="M77.9165622,62.8074323 L74.9355586,61.2251608 L72.0031354,60.7535438 L73.023323,58.2706407 L72.4692252,56.6838848 L69.637483,57.2377171 L69.1312616,58.1944047 L67.0514589,61.0270966 L63.2269876,58.8581066 L59.8643818,61.2685107 L56.5200816,59.6152351 L53.0504581,60.8678978 L53.0504581,63.7431922 L47.0455031,66.1334162 L45.9035126,67.4727787 L44.9797816,70.5558537 L40.79483,73.0036284 L40.7187911,75.1965356 L39.4965374,77.8416271 L42.2846277,78.7146044 L43.0513525,83.0563215 L48.2402983,84.4562244 L50.0891683,82.6811206 L52.8181172,83.5219592 L53.5221804,81.2797228 L58.0992953,81.2797228 L66.4896165,76.3654881 L72.9761507,69.2239653 L78.5030469,63.902391 L77.9165622,62.8074323 Z" id="Fill-7" opacity="0.6" sketch:type="MSShapeGroup"></path>
                <path d="M37.2321294,28.2257198 L39.1563341,25.1082638 L44.4255431,33.9912569 L45.5006476,37.0900276 L48.8498762,37.4689655 L49.8552785,40.6350032 L53.7980324,36.9898743 L56.5537358,37.2626798 L57.7161441,35.8343752 L57.7161441,33.8260788 L61.0942394,32.6309668 L63.7063138,32.6309668 L64.2970229,32.0420061 L62.9550784,30.0531424 L64.8659059,24.9684978 L66.3021949,24.9684978 L67.2202933,21.691843 L67.4075741,21.6335449 L66.6169111,21.0513108 L62.5910777,21.4526712 L60.2824545,19.1013126 L58.8320843,18.7844099 L58.0921139,17.1819583 L55.1941897,17.7335484 L53.6100475,24.4617524 L47.0953507,25.2099119 L42.7822596,23.5274872 L40.4053422,21.5655304 L37.5003774,21.6589569 L35.824707,27.1711213 L37.2321294,28.2257198 Z" id="Fill-8" opacity="0.6" sketch:type="MSShapeGroup"></path>
                <path d="M19.8068468,43.8994004 L17.2539136,46.0489577 L16.4618425,47.917488 L9.50710621,48.0109145 L5.10600714,44.9734316 L3.34514508,42.3111497 L0.000140812641,47.0766493 L2.3460794,50.6978611 L6.7675963,61.2759848 L13.2386412,57.3318911 L15.5916204,61.7348959 L16.8617504,68.2956795 L18.7444154,69.4758432 L19.4435502,71.6702452 L22.2182632,70.8137109 L23.1250966,74.2757239 L25.813914,74.9551215 L30.5050871,69.5139612 L32.609532,69.67316 L33.5733945,64.1512793 L38.9735593,67.4428822 L42.2840645,65.501853 L44.3202152,66.5452403 L46.0268644,64.5429232 L51.2904409,62.447927 L51.2904409,60.0278066 L50.0505856,59.3708313 L44.4047028,52.9640146 L47.6398732,46.5998004 L48.528401,42.3089074 L47.5420084,39.2004204 L44.2265748,38.8252195 L42.8367541,34.8213328 L39.1270451,28.5654933 L37.7055415,30.8682701 L34.6808859,28.6013691 L31.6907295,31.8443903 L29.3138122,32.9655085 L24.8240011,32.4049494 L23.7679063,30.1619656 L25.3527526,27.3591702 L19.8068468,18.294556 L19.8068468,43.8994004 Z" id="Fill-9" sketch:type="MSShapeGroup"></path>
                <path d="M7.53481397,62.9635667 L11.1797492,67.8224929 L11.8838124,73.8032847 L11.0917413,75.4849619 L9.41888709,75.4849619 L13.4686586,82.4934454 L12.3238519,84.6430026 L13.4686586,85.9517213 L15.7575681,84.9232822 L15.7575681,86.6057069 L18.3097972,86.6057069 L18.0147947,88.326997 L21.9195292,89.6895293 L27.3774272,86.6057069 L30.5147328,86.3336489 L35.9156016,83.0547519 L41.2854916,83.802164 L41.3847645,83.7595615 L40.7525158,80.1831945 L36.9970427,79.0075153 L38.9733481,74.7308231 L39.072621,71.8772036 L43.5152598,69.2784517 L43.7933647,68.3501658 L42.3380661,67.6049959 L38.9571546,69.5878803 L34.851058,67.0847971 L34.0540585,71.656717 L31.2293569,71.4422098 L26.4135646,77.0268731 L21.7069021,75.8384879 L20.9993186,73.136593 L18.3161338,73.9647257 L17.2853852,70.7314208 L15.2942945,69.4832426 L13.9234834,62.4000179 L12.5808349,59.8879658 L7.53481397,62.9635667 Z" id="Fill-10" opacity="0.6" sketch:type="MSShapeGroup"></path>
            </g>
        </g>
    </g>
</svg>