<?xml version="1.0" encoding="UTF-8" standalone="no"?>
<svg width="97px" height="90px" viewBox="0 0 97 90" version="1.1" xmlns="http://www.w3.org/2000/svg" xmlns:xlink="http://www.w3.org/1999/xlink" xmlns:sketch="http://www.bohemiancoding.com/sketch/ns">
    <!-- Generator: Sketch 3.4.2 (15855) - http://www.bohemiancoding.com/sketch -->
    <title>western-cape</title>
    <desc>Created with Sketch.</desc>
    <defs></defs>
    <g id="Elements" stroke="none" stroke-width="1" fill="none" fill-rule="evenodd" sketch:type="MSPage">
        <g id="Artboard-1" sketch:type="MSArtboardGroup" transform="translate(-1136.000000, -1434.000000)" fill="#FFFFFF">
            <g id="western-cape" sketch:type="MSLayerGroup" transform="translate(1136.650000, 1434.196291)">
                <path d="M67.0850713,26.6269488 L65.5405991,26.6269488 L64.4376042,29.5619998 L65.8332874,31.6294384 L68.0644246,32.7847718 L69.1192202,31.4166138 L70.5728823,30.4207135 L69.6074998,28.7388803 L70.4436523,26.3800129 L71.4572341,26.3800129 L71.5452501,25.337395 L71.0325217,24.6433051 L70.1390888,22.9636966 L69.8582757,22.4957792 L69.3776801,22.6782003 L69.3588195,22.6218425 L68.0958589,23.0163466 L67.0850713,26.6269488 Z" id="Fill-1" opacity="0.599999964" sketch:type="MSShapeGroup"></path>
                <path d="M75.5262304,38.0203303 L72.7509304,35.527984 L69.376283,35.527984 L64.9147071,33.2165758 L63.8969341,34.2295317 L60.8987998,34.2295317 L59.0092487,34.8969258 L59.0092487,36.2435788 L56.8437742,38.9049982 L53.9588034,38.6202434 L49.844402,42.4229068 L48.9195348,46.8862903 L46.1896399,52.2551051 L50.7189742,57.3955229 L52.6343713,58.4114451 L52.6343713,58.4314669 L56.178764,57.1522948 L59.2369728,58.6643133 L61.6085166,56.9631998 L59.5422348,51.3874928 L65.5790188,45.8577618 L70.533764,44.4651328 L71.6255823,45.0072051 L74.8025428,42.1715217 L75.5262304,38.0203303 Z" id="Fill-2" opacity="0.6" sketch:type="MSShapeGroup"></path>
                <path d="M73.4490515,49.9147765 L71.2004507,46.8417973 L70.369188,46.4302376 L66.4147522,47.5418196 L61.6213697,51.9325313 L63.3733084,56.6591647 L66.0515113,58.1778571 L67.1307558,56.708107 L67.9683055,55.1226752 L71.5588018,54.4204283 L73.5692004,51.2332506 L73.4490515,49.9147765 Z" id="Fill-3" opacity="0.6" sketch:type="MSShapeGroup"></path>
                <path d="M77.3818325,0.256501804 L73.6264807,1.09074444 L73.3645281,2.29576159 L69.2599062,3.22269786 L66.115777,7.58152296 L61.4865515,9.6215243 L60.6133763,14.9065441 L59.1548245,16.1226845 L59.5620734,17.0036447 L60.6552887,17.2424235 L62.7320485,19.359546 L66.5656369,18.9776482 L69.0231011,20.7833201 L72.5060223,18.7722391 L75.0305464,20.6706046 L75.8198967,21.5626881 L78.2200807,21.7629063 L79.4781515,19.5464163 L81.6499128,19.3981065 L83.2656361,16.2865668 L85.6951588,16.2546802 L86.5809077,13.3515158 L89.9834967,12.3393014 L89.8710318,11.938865 L89.2605077,6.56040997 L87.6880938,2.01916381 L81.9237405,1.18417962 L77.3818325,0.256501804 Z" id="Fill-4" opacity="0.6" sketch:type="MSShapeGroup"></path>
                <path d="M86.9696453,18.0919421 L84.3047146,18.1275364 L82.7176314,21.1842015 L80.5025606,21.3339944 L79.1599664,23.7017604 L75.0099394,23.3547154 L73.8783044,22.0755434 L72.3848255,20.9528382 L71.3579715,21.5460774 L71.6478657,22.0295673 L72.4896066,23.6105498 L73.3460168,24.771074 L73.0554241,28.2341079 L71.6520569,28.2341079 L71.5416876,28.5455585 L72.9499445,30.9986027 L70.2968891,32.8161393 L69.6772839,33.6199784 L69.7792708,33.67337 L73.3921204,33.67337 L76.7968051,36.7330012 L78.1121562,36.7330012 L79.5748993,35.7296854 L83.4832314,36.3963379 L84.9501657,34.9977765 L83.1458365,31.7801953 L85.8533781,26.6813043 L88.2116496,25.9390137 L89.9586985,27.6082406 L91.0938263,25.2901583 L91.2691599,16.9455073 L90.4791109,14.1187225 L87.9538883,14.8691701 L86.9696453,18.0919421 Z" id="Fill-5" opacity="0.6" sketch:type="MSShapeGroup"></path>
                <path d="M90.9193309,34.0052873 L89.9588382,37.1583537 L86.4717258,36.0400978 L84.0296295,38.3670786 L79.9592361,37.6729887 L78.62712,38.5873187 L77.2048923,38.5873187 L76.4057623,43.1619345 L72.9661507,46.232689 L75.1393091,49.2011097 L75.3684302,51.7149608 L73.3182149,54.9651702 L74.3331937,57.8690761 L73.9482981,58.8056525 L74.8815477,58.9554454 L78.5614572,60.9086855 L79.2124966,62.1255675 L79.9145295,61.4492748 L87.9498368,48.7472817 L91.9671412,46.7072804 L95.635874,34.0052873 L90.9193309,34.0052873 Z" id="Fill-6" opacity="0.6" sketch:type="MSShapeGroup"></path>
                <path d="M77.3053423,62.3147366 L74.3477234,60.7448773 L71.4383036,60.2769599 L72.4504883,57.8135341 L71.9007372,56.2392255 L69.0912088,56.7887134 L68.5889584,57.7378961 L66.5254708,60.5483669 L62.7310007,58.3963916 L59.394773,60.7878872 L56.0767073,59.1475808 L52.6343015,60.3904169 L52.6343015,63.243156 L46.6764526,65.6146297 L45.5434204,66.9434856 L44.6269358,70.0023752 L40.4748131,72.4309483 L40.3993708,74.6066531 L39.1867051,77.230995 L41.9529241,78.0971243 L42.7136343,82.4047825 L47.8618752,83.7937038 L49.6962416,82.0325249 L52.4037832,82.8667675 L53.1023234,80.6421205 L57.6435328,80.6421205 L65.9680358,75.7664357 L72.4036861,68.6809349 L77.8872263,63.4011059 L77.3053423,62.3147366 Z" id="Fill-7" opacity="0.6" sketch:type="MSShapeGroup"></path>
                <path d="M36.9400603,28.0043019 L38.8491705,24.911301 L44.077045,33.724611 L45.1437158,36.7990732 L48.4666712,37.1750386 L49.4641866,40.3162402 L53.3760114,36.6997056 L56.1100975,36.970371 L57.2633873,35.5532709 L57.2633873,33.5607287 L60.6149829,32.3749918 L63.2065669,32.3749918 L63.792642,31.7906512 L62.4612245,29.8173892 L64.3570625,24.7726313 L65.7820844,24.7726313 L66.6929807,21.5216804 L66.8787924,21.4638396 L66.0943318,20.8861729 L62.1000793,21.2843847 L59.8095661,18.9514715 L58.3705734,18.6370548 L57.6364077,17.0471737 L54.7612165,17.5944368 L53.1895012,24.2698611 L46.7259092,25.0121516 L42.4466523,23.3429248 L40.0883807,21.3963586 L37.2062041,21.4890523 L35.5436785,26.9579762 L36.9400603,28.0043019 Z" id="Fill-8" opacity="0.6" sketch:type="MSShapeGroup"></path>
                <path d="M19.6514711,43.5550297 L17.1185645,45.6877246 L16.3327069,47.5415972 L9.4325273,47.6342908 L5.06595285,44.6206356 L3.31890394,41.979238 L0.000139708029,46.7073545 L2.32767547,50.3001595 L6.71450759,60.7953027 L13.1347901,56.8821485 L15.4693112,61.2506138 L16.7294777,67.759931 L18.597374,68.9308369 L19.2910244,71.1080248 L22.0439711,70.2582096 L22.9436908,73.6930647 L25.6114156,74.3671327 L30.2657886,68.9686559 L32.3537251,69.1266059 L33.3100266,63.6480417 L38.6678295,66.9138236 L41.9523653,64.9880208 L43.9725434,66.0232232 L45.6658047,64.0366134 L50.8880908,61.9580515 L50.8880908,59.5569158 L49.6579616,58.9050942 L44.0563682,52.5485361 L47.2661601,46.2342462 L48.1477178,41.9770133 L47.1690631,38.892911 L43.8796375,38.5206534 L42.5007193,34.5481753 L38.8201112,28.3414101 L37.4097587,30.6261226 L34.4088302,28.3770044 L31.4421302,31.5945856 L29.0838587,32.7069091 L24.6292682,32.1507474 L23.581458,29.9253588 L25.1538718,27.14455 L19.6514711,18.1510435 L19.6514711,43.5550297 Z" id="Fill-9" opacity="0.6" sketch:type="MSShapeGroup"></path>
                <path d="M7.47570679,62.4696462 L11.0920491,67.2904563 L11.7905893,73.2243315 L11.0047316,74.8928168 L9.34500022,74.8928168 L13.3630031,81.8463219 L12.2271769,83.9790169 L13.3630031,85.2774692 L15.6339572,84.2570978 L15.6339572,85.9263246 L18.1661652,85.9263246 L17.8734769,87.634112 L21.7475805,88.9859558 L27.1626637,85.9263246 L30.2753586,85.6564008 L35.6338601,82.4032252 L40.9616258,83.1447743 L41.0601199,83.102506 L40.4328309,79.5541939 L36.7068177,78.3877373 L38.6676199,74.1445939 L38.7661141,71.3133597 L43.1739024,68.7349938 L43.4498258,67.8139899 L42.0059433,67.0746656 L38.6515535,69.0419951 L34.5776674,66.5585475 L33.7869199,71.0946028 L30.9843769,70.8817782 L26.2063623,76.4226324 L21.5366214,75.2435695 L20.8345885,72.5628698 L18.172452,73.3845061 L17.1497893,70.1765651 L15.1743177,68.9381782 L13.8142601,61.9105182 L12.482144,59.418172 L7.47570679,62.4696462 Z" id="Fill-10" sketch:type="MSShapeGroup"></path>
            </g>
        </g>
    </g>
</svg>